<svg width="60" height="60" viewBox="0 0 60 60" fill="none" xmlns="http://www.w3.org/2000/svg">
<rect width="60" height="60" rx="10" fill="white"/>
<path d="M14 41.7164V32L24.6891 38.7044C27.978 40.7675 32.0221 40.7675 35.3109 38.7047L46 32V41.7164C46 42.1027 45.8595 42.4733 45.6096 42.7463L45.6053 42.7509L45.5989 42.7576L45.5808 42.7774L45.5203 42.8407C45.4693 42.8931 45.3976 42.9657 45.3051 43.0554C45.1203 43.2351 44.8523 43.484 44.5037 43.7785C43.8072 44.3676 42.7861 45.1429 41.4608 45.9152C38.8088 47.4605 34.9277 49 30 49C25.0723 49 21.1913 47.4605 18.5392 45.9152C17.2138 45.1429 16.1927 44.3676 15.4963 43.7785C15.1478 43.484 14.8798 43.2351 14.6949 43.0554C14.6024 42.9657 14.5306 42.8931 14.4798 42.8407L14.4193 42.7774C14.1583 42.4983 14 42.1178 14 41.7164Z" fill="#212121"/>
<path d="M53.3304 26.3092L33.9832 38.0507C31.5165 39.5479 28.4835 39.5479 26.0169 38.0507L8.66667 27.5213V40.5906C8.66667 41.3689 8.06971 42 7.33333 42C6.59696 42 6 41.3689 6 40.5906V25.0869C6 24.5513 6.28261 24.0852 6.69883 23.8467L26.0168 12.1228C26.9418 11.5614 27.9465 11.2105 28.971 11.0702C29.2956 11.0257 29.6222 11.0024 29.949 11.0002C30.9971 10.9931 32.0464 11.2036 33.0339 11.6315C33.3576 11.7719 33.6749 11.9356 33.9832 12.1228L53.3307 23.8646C53.7445 24.1159 54 24.5821 54 25.0869C54 25.5917 53.7445 26.0579 53.3304 26.3092Z" fill="#212121"/>
</svg>
